<svg width="220" height="130" viewBox="0 0 220 130" fill="none" xmlns="http://www.w3.org/2000/svg">
<rect width="220" height="130" fill="white"/>
<path fill-rule="evenodd" clip-rule="evenodd" d="M127.162 94.217L125.753 98.491H122.232L128.721 80.4166H132.418L138.906 98.491H135.31L133.902 94.217H127.162ZM62.8815 80.4681V98.491H59.7126V80.4681H62.8815ZM56.8453 95.3758V98.4912H45V80.4683H56.8453V83.5837H48.3197V87.8834H54.7579V90.9988H48.3197V95.3758H56.8453ZM69.5701 98.8514C71.0036 98.8514 72.4371 98.2078 73.0156 97.2809H73.1162V98.491H76.1089V90.7154C76.1089 87.5743 74.3233 85.8235 71.1294 85.8235C68.3881 85.8235 66.4264 87.1108 65.7223 89.3508L68.8911 89.6083C69.1677 88.9388 69.8467 88.3982 70.9282 88.3982C72.2108 88.3982 72.9653 89.1706 72.9653 90.5094V91.4106C72.5629 91.1788 71.5318 90.9471 70.5006 90.9471C67.3067 90.9471 65.3702 92.4662 65.3702 95.0151C65.3702 97.2551 67.1055 98.8514 69.5701 98.8514ZM68.5657 94.7577C68.5657 95.7104 69.2699 96.3283 70.4771 96.3283C71.8352 96.3283 73.0172 95.4786 73.0172 94.526V93.7278C72.6651 93.4189 71.7849 93.1872 70.8543 93.1872C69.3957 93.1872 68.5657 93.8051 68.5657 94.7577ZM83.2267 98.8772C86.1692 98.8772 88.156 97.2551 88.156 94.7577C88.156 91.8493 85.9362 91.3828 84.1085 90.9987C82.8297 90.73 81.7429 90.5016 81.7429 89.5053C81.7429 88.8101 82.2962 88.2694 83.277 88.2694C84.2327 88.2694 84.9872 88.8101 85.1381 89.6083L88.0806 88.9646C87.5776 87.0851 85.6662 85.8235 83.2016 85.8235C80.4603 85.8235 78.5993 87.394 78.5993 89.737C78.5993 92.6701 80.8336 93.1363 82.6646 93.5184C83.9357 93.7836 85.0123 94.0083 85.0123 94.9894C85.0123 95.8905 84.3836 96.4827 83.3022 96.4827C82.1956 96.4827 81.2651 95.8648 81.0136 94.9121L78.0963 95.4786C78.7502 97.6413 80.6364 98.8772 83.2267 98.8772ZM97.4871 98.4139C97.0595 98.5941 96.3302 98.7486 95.4248 98.7486C92.9099 98.7486 91.0992 97.6672 91.0992 94.4231V88.9648H89.0369V86.2098H91.0992V82.9657L94.268 82.322V86.2098H97.3613V88.9648H94.268V93.9082C94.268 95.556 94.8716 96.0709 96.0536 96.0709C96.5314 96.0709 96.8835 95.9679 97.1601 95.8392L97.4871 98.4139ZM102.366 83.5835V80.4681H99.1972V83.5835H102.366ZM102.366 86.2098V98.4911H99.1972V86.2098H102.366ZM110.766 98.8772C113.457 98.8772 115.443 97.4611 116.173 94.9121L113.205 94.1397C112.853 95.2984 111.998 96.045 110.665 96.045C108.779 96.045 107.722 94.5002 107.722 92.3632C107.722 90.2004 108.779 88.6814 110.665 88.6814C111.998 88.6814 112.903 89.3765 113.255 90.5609L116.324 90.1232C115.645 87.3168 113.683 85.8235 110.59 85.8235C107.245 85.8235 104.554 88.3209 104.554 92.3374C104.554 96.1738 107.043 98.8772 110.766 98.8772ZM132.922 91.1532H128.194L130.482 84.2015H130.583L132.922 91.1532ZM144.566 92.0027V98.491H141.247V80.4681H147.584C150.904 80.4681 153.771 82.5536 153.771 86.2354C153.771 89.5568 151.256 92.0027 147.861 92.0027H144.566ZM147.307 88.913H144.566V83.6091H146.955C149.445 83.6091 150.35 84.845 150.35 86.2353C150.35 87.6771 149.395 88.913 147.307 88.913ZM159.856 84.8193V98.491H156.537V80.4681H161.667L166.269 93.2901H166.37L170.922 80.4681H175.902V98.491H172.582V84.8193H172.481L167.628 98.491H164.811L159.957 84.8193H159.856Z" fill="#343741"/>
<path fill-rule="evenodd" clip-rule="evenodd" d="M87.7959 34.265H133.108V20H87.7959V34.265Z" fill="#F04E98"/>
<path fill-rule="evenodd" clip-rule="evenodd" d="M114.648 65.3125H133.109V52.7257H114.648V65.3125Z" fill="#0077CC"/>
<path d="M102.06 34.2649H133.107V34.2649C133.107 42.1432 126.72 48.5299 118.842 48.5299H102.06V34.2649Z" fill="#343741"/>
</svg>
